<?xml version="1.0" encoding="iso-8859-1"?>
<svg xmlns="http://www.w3.org/2000/svg" xmlns:xlink="http://www.w3.org/1999/xlink" version="1.1" viewBox="0 0 490.007 490.007" enable-background="new 0 0 490.007 490.007" width="512px" height="512px">
  <g>
    <g>
      <path d="m63.181,284.636l75.023-75.023 14.566,14.566-75.023,75.023-14.566-14.566zm31.961,31.886l75.023-75.023 14.566,14.566-75.023,75.023-14.566-14.566zm31.891,31.96l75.023-75.023 14.566,14.566-75.023,75.023-14.566-14.566zm32.032,31.958l75.023-75.023 14.566,14.566-75.023,75.023-14.566-14.566zm46.501,46.565l-14.566-14.566 75.023-75.023 14.566,14.566-75.023,75.023z" fill="#5e5e5e"/>
      <path d="m468.9,20.714c-15.5-15.5-60.8-45.3-126.8,20.6-13.4,13.4-26,32.2-35.9,55.5l-115.5-3-190.7,189.7 206.1,206.1 189.6-189.6-3-116.8c20.7-9.1 40.7-20.8 55.6-35.7 67-66 37.1-110.3 20.6-126.8zm-262.8,440l-177.2-177.2 169-169 172.1,5.2 1.5,51.1c-11.9,4.6-23.9,8.4-34.9,11.4-2.1-6.7-5.8-13-10.9-18.2-9.3-8.2-20.6-13.4-33-13.4s-24.7,5.2-33,13.4c-8.2,9.3-13.4,20.6-13.4,33s5.2,24.7 13.4,33c9.3,8.2 20.6,13.4 33,13.4 11.3,0 23.7-4.1 33-14.4 7.5-7.5 11.7-17.2 12.8-27.2 10.5-2.7 22-6.1 33.6-10.3l3,100.2-169,169zm70.1-256.6c1.6,7.4 8.5,8.3 12.4,7.2 1.6,0 12.4-1.3 28.1-4.6-1.3,2.7-3.1,5.3-5.4,7.7-9.3,9.3-26.8,9.3-36.1,0-4.1-4.1-7.2-10.3-7.2-17.5 0-6.2 3.1-13.4 7.2-17.5s10.3-7.2 17.5-7.2c6.2,0 12.4,2.1 18.6,6.2 2.6,2.6 4.5,5.5 5.8,8.6-18.4,4.1-31.2,5.8-31.6,5.8-6.2,1-10.4,6.2-9.3,11.3zm116-42.4l-1.6-62.7-62.3-1.6c8.1-16.8 17.3-30.7 27.2-40.6 38.1-38.1 73.2-45.3 97.9-20.6s17.5,59.8-20.6,97.9c-11,11-25.3,20.1-40.6,27.6z" fill="#5e5e5e"/>
    </g>
  </g>
</svg>
